<svg xmlns="http://www.w3.org/2000/svg" viewBox="0 0 640 640"><defs><style>.cls-1{fill:#212020;}.cls-2{fill:#202020;}.cls-3{fill:#f66447;}.cls-4{fill:#f2f1ef;}</style></defs><title>Ресурс 2</title><g id="Слой_2" data-name="Слой 2"><g id="Слой_1-2" data-name="Слой 1"><path class="cls-1" d="M.07,516.94V123.06c9,.2,17.73,2.18,26.49,4a21.42,21.42,0,0,0,2.26,1c34.63,10.7,69.36,21.05,103.84,32.19,27.68,8.94,55.81,15.21,84.8,17.63,42.75,3.58,85.49,3.09,128.22-.09,13.4-1,26.83-2,40-4.79l1.42-.15a2.1,2.1,0,0,0,2.4-.25c6.47-.3,12.93-.66,19.4-.88,42.7-1.48,85.09-6.55,127.52-11.06,1.82.05,3.64.2,5.45.14q41.6-1.55,83.18.32c12.57.56,12.57.6,12.38-12.06a2.68,2.68,0,0,1,2.48.05V436c-.69.92-1.76.81-2.72,1-35.4,7-70.83,13.9-106.19,21.13q-65,13.28-129.54,28.83c-15.2,3.64-30.43,7.09-45.65,10.63-2.12-.36-4.22-.86-6.35-1.06-52.08-4.81-103.65-.9-155,8.39q-42.44,7.68-85.22,13.44c-8.38,1.13-16.94,1-25.14,3.34-23.8-.58-47.58-1.86-71.39-2C8.47,519.63,3.9,519.64.07,516.94Z"/><path class="cls-2" d="M.07,90.07C.07,61.26.12,32.45,0,3.65,0,.81.39,0,3.52,0q316.5.15,633,0c3.21,0,3.49.92,3.48,3.68q-.13,69.18-.06,138.37h-2.33c0-.83-.11-1.66-.11-2.49,0-7.1,0-7-6.9-7.28-41.27-1.45-82.53-1.1-123.78.81-37.08,1.71-74.11,4.19-110.84,9.69a776.67,776.67,0,0,1-153.79,7.68c-5.42-.27-10.87-1.23-16.32-.21l-1.76-.22a4.6,4.6,0,0,0-4.26-.61c-17.51-2.29-34.94-5-52.26-8.47a4,4,0,0,0-3.63-.75l-1.86-.42c-.73-1.36-2.14-1.42-3.39-1.81q-49-15.17-97.91-30.36C40.67,101.36,20.44,95.46.07,90.07Z"/><path class="cls-1" d="M639.94,494q0,71.19.06,142.37c0,2.75-.26,3.68-3.48,3.68q-316.5-.16-633,0C.39,640,0,639.18,0,636.35c.12-29.8.07-59.61.07-89.42a22.81,22.81,0,0,1,3.42.13,254.51,254.51,0,0,0,59.13,4.4c25.63-1.07,51.07-4.23,76.39-8.29,11-1.75,22.12-2.59,32.86-5.67,9.93.53,19.64,2.41,29.66,4.27-1.33,1.86-2.93,2-4.28,2.49C186,548.42,174.83,552.72,164,558c-8.24,4-16.54,8-22.89,14.88-5.89,6.36-4.77,13.07,2.67,17.41a39,39,0,0,0,9.71,3.85c17.53,4.65,35.5,5.55,53.48,6.32,26.48,1.13,53,1.76,79.37-1.4,9.25-1.1,18.53-2.51,26.89-7.07,9-4.91,10-12.16,2.83-19.4a45.6,45.6,0,0,0-11.38-8c-17.53-9.21-36.42-14.58-55.47-19.45-6.09-1.55-12.21-3-18.31-4.46a101.28,101.28,0,0,1,16.62-6.13c14.08-4,27.83-9.14,42.3-11.67a6,6,0,0,0,3.85.73c34.68-.53,69.18,3,103.75,4.92a683.35,683.35,0,0,0,118.2-3.31c21.82-2.56,43.43-6.39,64.93-11A262,262,0,0,0,639.94,494Z"/><path class="cls-3" d="M639.94,494a262,262,0,0,1-59.35,20.22c-21.5,4.56-43.11,8.39-64.93,11a683.35,683.35,0,0,1-118.2,3.31c-34.57-1.94-69.07-5.45-103.75-4.92a6,6,0,0,1-3.85-.73c3.56-2.4,7.82-2.55,11.77-3.69,26.92-7.75,54.15-14.33,81.33-21,1.11,1,2.47.89,3.79.94,13.62.55,27.24,1.29,40.87,1.59a626,626,0,0,0,118.67-9c32.62-5.53,64.29-13.86,93.65-29.61Z"/><path class="cls-4" d="M383,498.05c-27.18,6.71-54.41,13.29-81.33,21-3.95,1.14-8.21,1.29-11.77,3.69-14.47,2.53-28.22,7.68-42.3,11.67a101.28,101.28,0,0,0-16.62,6.13c6.1,1.49,12.22,2.91,18.31,4.46,19.05,4.87,37.94,10.24,55.47,19.45a45.6,45.6,0,0,1,11.38,8c7.17,7.24,6.18,14.49-2.83,19.4-8.36,4.56-17.64,6-26.89,7.07-26.4,3.16-52.89,2.53-79.37,1.4-18-.77-35.95-1.67-53.48-6.32a39,39,0,0,1-9.71-3.85c-7.44-4.34-8.56-11-2.67-17.41C147.5,566,155.8,561.94,164,558c10.79-5.23,22-9.53,33.21-13.69,1.35-.5,2.95-.63,4.28-2.49-10-1.86-19.73-3.74-29.65-4.27a49.23,49.23,0,0,0-5.27-1.27c-32.48-4.12-65.08-6.85-97.78-8.47C45.92,526.61,23,526.29.07,525.94v-9c3.83,2.7,8.4,2.69,12.67,2.72,23.81.14,47.59,1.42,71.38,2,.81.14,1.62.34,2.44.4,21.33,1.66,42.69,3,63.92,5.78q23.42,3.07,46.82,6.18c6.55,1.61,13.45,4.44,19.86,3,11.88-2.76,23.35-7.27,35-11.05a10.49,10.49,0,0,0,2.46-.19c18.48-6,37.27-10.91,56-15.94,15.07-4,30.13-8.16,45.19-12.24,15.22-3.54,30.45-7,45.65-10.63Q466,471.46,531,458.09c35.36-7.23,70.79-14.1,106.19-21.13,1-.19,2-.08,2.72-1v8c-1.91-1.52-3.85-.19-5.65.15-40.37,7.68-80.69,15.67-120.89,24.25C469.79,477.67,426.27,487.4,383,498.05ZM228.69,594.72c19.49.39,37.48.06,55.39-1.91,8.76-1,17.55-2.26,25.58-6.24,5.64-2.79,6-5.5,1.48-9.84-4.13-4-9.16-6.62-14.31-9-24.71-11.32-51-17.3-77.43-22.77a10.77,10.77,0,0,0-5.89.42c-17.48,6-34.85,12.3-51.35,20.71-5.77,2.94-11.56,6-16,10.86-3.29,3.57-3,5.43,1.23,7.79,5.15,2.9,10.87,4.09,16.61,5.12C185.86,593.82,208.05,593.89,228.69,594.72Z"/><path class="cls-1" d="M383,498.05c43.31-10.65,86.83-20.38,130.44-29.69,40.2-8.58,80.52-16.57,120.89-24.25,1.8-.34,3.74-1.67,5.65-.15v18c-29.36,15.75-61,24.08-93.65,29.61a626,626,0,0,1-118.67,9c-13.63-.3-27.25-1-40.87-1.59C385.43,498.94,384.07,499,383,498.05Z"/><path class="cls-4" d="M224.11,150l1.76.22c3.26,2,7,1.65,10.6,2.36a673.29,673.29,0,0,0,104.41,12.65c54.88,2.41,109.43-1.79,163.89-7.73,44.31-4.84,88.47-11.09,132.84-15.48h2.33v7a2.68,2.68,0,0,0-2.48-.05c-7.77.71-15.57,1.25-23.32,2.16-25.9,3.07-51.79,6.28-77.69,9.44-42.43,4.51-84.82,9.58-127.52,11.06-6.47.22-12.93.58-19.4.88a2.07,2.07,0,0,0-2.4.25l-1.42.15c-4.91-1.29-9.92-.71-14.88-.66-28.49.29-57-.91-85.12-5C249,162,212.53,155.37,175.94,149.4q-29.52-4.82-59.11-9.33-31-4.77-62.15-9.31c-9.35-1.37-18.75-2.5-28.12-3.74-8.76-1.78-17.49-3.76-26.49-4v-7c10.36,1.49,20.72,2.92,31.07,4.49,37.91,5.75,75.81,11.62,113.74,17.29,5.7.85,11.33,2.62,17.22,1.93l1.86.42a3.6,3.6,0,0,0,3.63.75c17.32,3.46,34.75,6.18,52.26,8.47A5.32,5.32,0,0,0,224.11,150Z"/><path class="cls-3" d="M.07,525.94c22.93.35,45.85.67,68.76,1.82,32.7,1.62,65.3,4.35,97.78,8.47a49.23,49.23,0,0,1,5.27,1.27c-10.75,3.08-21.9,3.92-32.87,5.67-25.32,4.06-50.76,7.22-76.39,8.29a254.51,254.51,0,0,1-59.13-4.4,22.81,22.81,0,0,0-3.42-.13Z"/><path class="cls-3" d="M162.1,139.77c-5.89.69-11.52-1.08-17.22-1.93C107,132.17,69.05,126.3,31.14,120.55c-10.35-1.57-20.71-3-31.07-4.49v-26c20.37,5.39,40.6,11.29,60.73,17.53q48.95,15.18,97.91,30.36C160,138.35,161.37,138.41,162.1,139.77Z"/><path class="cls-3" d="M355.84,497.55c-15.06,4.08-30.12,8.21-45.19,12.24-18.77,5-37.56,9.93-56,15.94a10.45,10.45,0,0,1-2.45.19c-18.43,1.68-36.64,5-54.86,8.1q-23.42-3.09-46.82-6.18c-21.23-2.79-42.59-4.12-63.92-5.78-.82-.06-1.63-.26-2.44-.4,8.21-2.38,16.77-2.21,25.15-3.34q42.77-5.79,85.22-13.44c51.35-9.29,102.92-13.2,155-8.39C351.62,496.69,353.72,497.19,355.84,497.55Z"/><path class="cls-3" d="M26.56,127c9.37,1.24,18.77,2.37,28.12,3.74q31.09,4.55,62.15,9.31,29.58,4.55,59.11,9.33c36.59,6,73.08,12.6,109.77,17.9,28.16,4.07,56.63,5.27,85.12,5,5-.05,10-.63,14.88.66-13.2,2.76-26.63,3.79-40,4.79-42.73,3.18-85.47,3.67-128.22.09-29-2.42-57.12-8.69-84.8-17.63C98.18,149.05,63.45,138.7,28.82,128A21.42,21.42,0,0,1,26.56,127Z"/><path class="cls-3" d="M536.45,160.6c25.9-3.16,51.79-6.37,77.69-9.44,7.75-.91,15.55-1.45,23.32-2.16.19,12.66.19,12.62-12.38,12.06q-41.58-1.83-83.18-.32C540.09,160.8,538.27,160.65,536.45,160.6Z"/><path class="cls-2" d="M121.38,287c.53,12,.42,24.06.05,36.09-1.27-.86-1.38-2.18-1.38-3.54q0-14.49,0-29C120.05,289.17,120.13,287.85,121.38,287Z"/><path class="cls-2" d="M297.33,278a269.19,269.19,0,0,1,0,27.1c-1.42-1-1.32-2.58-1.32-4.07V282C296,280.54,295.91,279,297.33,278Z"/><path class="cls-2" d="M125.69,304.06a23.44,23.44,0,0,1,0-8.1A6.14,6.14,0,0,1,125.69,304.06Z"/><path class="cls-2" d="M125.69,288.06c0-1,0-2.06,0-3.09C127.19,286,127.18,287,125.69,288.06Z"/><path class="cls-3" d="M387.13,172.79a2.07,2.07,0,0,1,2.4-.25A2.1,2.1,0,0,1,387.13,172.79Z"/><path class="cls-2" d="M125.69,323V321C126.8,321.65,126.79,322.35,125.69,323Z"/><path class="cls-2" d="M217.92,354l0-2C218.82,352.63,218.85,353.31,217.92,354Z"/><path class="cls-2" d="M219,370.87c-1.58.07-1.31-.93-1.1-1.9C218.29,369.61,218.66,370.24,219,370.87Z"/><path class="cls-2" d="M125.7,279.05l-.09-2.08C126.75,277.62,126.82,278.31,125.7,279.05Z"/><path class="cls-2" d="M222,279.94c.84-.13,1.2.25,1.1,1.08Z"/><path class="cls-3" d="M637.61,142c-44.37,4.39-88.53,10.64-132.84,15.48-54.46,5.94-109,10.14-163.89,7.73A673.29,673.29,0,0,1,236.47,152.6c-3.55-.71-7.34-.35-10.6-2.36,5.45-1,10.9-.06,16.32.21A776.67,776.67,0,0,0,396,142.77c36.73-5.5,73.76-8,110.84-9.69,41.25-1.91,82.51-2.26,123.78-.81,6.86.24,6.86.18,6.9,7.28C637.5,140.38,637.57,141.21,637.61,142Z"/><path class="cls-3" d="M224.11,150a5.32,5.32,0,0,1-4.26-.61A4.6,4.6,0,0,1,224.11,150Z"/><path class="cls-3" d="M167.59,140.94a3.6,3.6,0,0,1-3.63-.75A4,4,0,0,1,167.59,140.94Z"/><path class="cls-1" d="M228.69,594.72c-20.64-.83-42.83-.9-64.73-4.84-5.74-1-11.46-2.22-16.61-5.12-4.19-2.36-4.52-4.22-1.23-7.79,4.48-4.85,10.27-7.92,16-10.86,16.5-8.41,33.87-14.7,51.35-20.71a10.77,10.77,0,0,1,5.89-.42c26.43,5.47,52.72,11.45,77.43,22.77,5.15,2.36,10.18,5,14.31,9,4.5,4.34,4.16,7-1.48,9.84-8,4-16.82,5.27-25.58,6.24C266.17,594.78,248.18,595.11,228.69,594.72Z"/><path class="cls-1" d="M197.3,534c18.22-3.13,36.43-6.42,54.86-8.1-11.65,3.78-23.12,8.29-35,11.05C210.75,538.46,203.85,535.63,197.3,534Z"/><path class="cls-1" d="M85.93,283.42c0,.1,0,.24,0,.3s-.23.17-.3.14c-.4-.22-.39-.45,0-.61C85.71,283.23,85.83,283.36,85.93,283.42Z"/><path class="cls-2" d="M303,279.92l-1.34,1.15C301.6,280.07,302.14,279.8,303,279.92Z"/><path class="cls-1" d="M282.7,300.38A21.27,21.27,0,1,1,261.5,279,21.27,21.27,0,0,1,282.7,300.38Z"/><path class="cls-1" d="M554.38,290.6c0,10.56,0,10.56-10.58,10.54-1.66,0-3.32.06-5-.05-6.09-.4-10.2-4.69-10.25-10.65a10.29,10.29,0,0,1,10.15-10.67c4-.21,8,.15,11.94-.14,3.27-.25,4,1.12,3.75,4C554.22,285.94,554.37,288.28,554.38,290.6Z"/><path class="cls-1" d="M159.39,279a21.3,21.3,0,1,1-21.07,21.28A21,21,0,0,1,159.39,279Z"/><path class="cls-1" d="M499.11,280.92c3.44,8.93,6.36,16.7,9.45,24.41,1.07,2.67.48,3.5-2.4,3.4-4.82-.18-9.65-.07-14.48,0-1.89,0-3.38,0-2.33-2.68C492.52,298,495.58,290,499.11,280.92Z"/><path class="cls-1" d="M396.23,362.07c3.37.14,6.39.7,6.27,4.48-.11,3.47-2.67,4.62-5.94,4.57s-6.23-1-6.16-4.87S393.65,362.22,396.23,362.07Z"/><rect class="cls-2" x="26.56" y="190.16" width="596.93" height="236.05"/></g></g></svg>